<svg width="161" height="25" viewBox="0 0 161 25" fill="none" xmlns="http://www.w3.org/2000/svg">
<path d="M7.296 24V5.824H0.128V1.6H19.648V5.824H12.48V24H7.296ZM28.8793 24.256C26.9166 24.256 25.1886 23.872 23.6953 23.104C22.2233 22.336 21.0819 21.2907 20.2713 19.968C19.4606 18.624 19.0553 17.0987 19.0553 15.392C19.0553 13.664 19.4499 12.1387 20.2393 10.816C21.0499 9.472 22.1486 8.42667 23.5353 7.68C24.9219 6.912 26.4899 6.528 28.2393 6.528C29.9246 6.528 31.4393 6.89067 32.7833 7.616C34.1486 8.32 35.2259 9.344 36.0153 10.688C36.8046 12.0107 37.1993 13.6 37.1993 15.456C37.1993 15.648 37.1886 15.872 37.1673 16.128C37.1459 16.3627 37.1246 16.5867 37.1033 16.8H23.1193V13.888H34.4792L32.5593 14.752C32.5593 13.856 32.3779 13.0773 32.0153 12.416C31.6526 11.7547 31.1513 11.2427 30.5113 10.88C29.8713 10.496 29.1246 10.304 28.2713 10.304C27.4179 10.304 26.6606 10.496 25.9993 10.88C25.3593 11.2427 24.8579 11.7653 24.4953 12.448C24.1326 13.1093 23.9513 13.8987 23.9513 14.816V15.584C23.9513 16.5227 24.1539 17.3547 24.5593 18.08C24.9859 18.784 25.5726 19.328 26.3193 19.712C27.0873 20.0747 27.9833 20.256 29.0073 20.256C29.9246 20.256 30.7246 20.1173 31.4073 19.84C32.1113 19.5627 32.7513 19.1467 33.3273 18.592L35.9833 21.472C35.1939 22.368 34.2019 23.0613 33.0073 23.552C31.8126 24.0213 30.4366 24.256 28.8793 24.256ZM47.5628 24.256C45.5361 24.256 43.9574 23.744 42.8268 22.72C41.6961 21.6747 41.1308 20.128 41.1308 18.08V2.976H46.1228V18.016C46.1228 18.7413 46.3148 19.3067 46.6988 19.712C47.0828 20.096 47.6054 20.288 48.2668 20.288C49.0561 20.288 49.7281 20.0747 50.2828 19.648L51.6268 23.168C51.1148 23.5307 50.4961 23.808 49.7708 24C49.0668 24.1707 48.3308 24.256 47.5628 24.256ZM38.4748 11.008V7.168H50.4108V11.008H38.4748ZM54.429 24V6.784H59.197V11.648L58.525 10.24C59.037 9.024 59.8583 8.10667 60.989 7.488C62.1197 6.848 63.4957 6.528 65.117 6.528V11.136C64.9037 11.1147 64.7117 11.104 64.541 11.104C64.3703 11.0827 64.189 11.072 63.997 11.072C62.6317 11.072 61.5223 11.4667 60.669 12.256C59.837 13.024 59.421 14.2293 59.421 15.872V24H54.429ZM77.5203 24V20.64L77.2003 19.904V13.888C77.2003 12.8213 76.8696 11.9893 76.2083 11.392C75.5683 10.7947 74.5763 10.496 73.2323 10.496C72.3149 10.496 71.4083 10.6453 70.5123 10.944C69.6376 11.2213 68.8909 11.6053 68.2723 12.096L66.4803 8.608C67.4189 7.94667 68.5496 7.43467 69.8723 7.072C71.1949 6.70933 72.5389 6.528 73.9043 6.528C76.5283 6.528 78.5656 7.14667 80.0163 8.384C81.4669 9.62133 82.1923 11.552 82.1923 14.176V24H77.5203ZM72.2723 24.256C70.9283 24.256 69.7763 24.032 68.8163 23.584C67.8563 23.1147 67.1203 22.4853 66.6083 21.696C66.0963 20.9067 65.8403 20.0213 65.8403 19.04C65.8403 18.016 66.0856 17.12 66.5763 16.352C67.0883 15.584 67.8883 14.9867 68.9763 14.56C70.0643 14.112 71.4829 13.888 73.2323 13.888H77.8083V16.8H73.7763C72.6029 16.8 71.7923 16.992 71.3443 17.376C70.9176 17.76 70.7043 18.24 70.7043 18.816C70.7043 19.456 70.9496 19.968 71.4403 20.352C71.9523 20.7147 72.6456 20.896 73.5203 20.896C74.3523 20.896 75.0989 20.704 75.7603 20.32C76.4216 19.9147 76.9016 19.328 77.2003 18.56L77.9683 20.864C77.6056 21.9733 76.9443 22.816 75.9843 23.392C75.0243 23.968 73.7869 24.256 72.2723 24.256ZM94.1983 24.16C92.5343 24.16 90.9556 23.8827 89.4623 23.328C87.9903 22.752 86.8489 22.016 86.0383 21.12L86.7743 19.904C87.5423 20.6933 88.5876 21.3653 89.9103 21.92C91.2543 22.4533 92.6729 22.72 94.1663 22.72C95.6596 22.72 96.8756 22.528 97.8143 22.144C98.7743 21.7387 99.4783 21.2053 99.9263 20.544C100.396 19.8827 100.63 19.1467 100.63 18.336C100.63 17.376 100.374 16.608 99.8623 16.032C99.3503 15.456 98.6783 14.9973 97.8463 14.656C97.0143 14.3147 96.1076 14.0267 95.1263 13.792C94.1449 13.5573 93.1529 13.312 92.1503 13.056C91.1476 12.7787 90.2303 12.4267 89.3983 12C88.5663 11.5733 87.8943 10.9973 87.3823 10.272C86.8916 9.52533 86.6463 8.56533 86.6463 7.392C86.6463 6.32533 86.9236 5.344 87.4783 4.448C88.0329 3.552 88.8969 2.82667 90.0703 2.272C91.2436 1.71733 92.7476 1.44 94.5823 1.44C95.8196 1.44 97.0356 1.62133 98.2303 1.984C99.4463 2.34667 100.481 2.83733 101.334 3.456L100.726 4.768C99.7876 4.128 98.7743 3.65867 97.6863 3.36C96.6196 3.04 95.5849 2.88 94.5823 2.88C93.1529 2.88 91.9689 3.08267 91.0303 3.488C90.0916 3.89333 89.3983 4.43733 88.9503 5.12C88.5023 5.78133 88.2783 6.528 88.2783 7.36C88.2783 8.32 88.5236 9.088 89.0143 9.664C89.5263 10.24 90.1983 10.6987 91.0303 11.04C91.8623 11.3813 92.7796 11.6693 93.7823 11.904C94.7849 12.1387 95.7769 12.3947 96.7583 12.672C97.7396 12.928 98.6463 13.2693 99.4783 13.696C100.31 14.1227 100.982 14.6987 101.494 15.424C102.006 16.1493 102.262 17.088 102.262 18.24C102.262 19.2853 101.974 20.2667 101.398 21.184C100.822 22.08 99.9369 22.8053 98.7423 23.36C97.5689 23.8933 96.0543 24.16 94.1983 24.16ZM114.082 24.128C112.397 24.128 110.904 23.7653 109.602 23.04C108.322 22.3147 107.309 21.312 106.562 20.032C105.837 18.752 105.474 17.2907 105.474 15.648C105.474 13.984 105.816 12.5227 106.498 11.264C107.202 9.984 108.162 8.98133 109.378 8.256C110.594 7.53067 111.96 7.168 113.474 7.168C114.989 7.168 116.344 7.52 117.538 8.224C118.754 8.928 119.704 9.92 120.386 11.2C121.09 12.4587 121.442 13.92 121.442 15.584C121.442 15.648 121.432 15.7227 121.41 15.808C121.41 15.872 121.41 15.9467 121.41 16.032H106.658V14.784H120.546L119.906 15.392C119.928 14.0907 119.65 12.928 119.074 11.904C118.52 10.8587 117.762 10.048 116.802 9.472C115.842 8.87467 114.733 8.576 113.474 8.576C112.237 8.576 111.128 8.87467 110.146 9.472C109.186 10.048 108.429 10.8587 107.874 11.904C107.32 12.928 107.042 14.1013 107.042 15.424V15.712C107.042 17.0773 107.341 18.2933 107.938 19.36C108.557 20.4053 109.4 21.2267 110.466 21.824C111.533 22.4 112.749 22.688 114.114 22.688C115.181 22.688 116.173 22.496 117.09 22.112C118.029 21.728 118.818 21.1413 119.458 20.352L120.386 21.408C119.661 22.304 118.744 22.9867 117.634 23.456C116.546 23.904 115.362 24.128 114.082 24.128ZM133.176 24.128C131.491 24.128 129.997 23.7653 128.696 23.04C127.416 22.3147 126.403 21.312 125.656 20.032C124.931 18.752 124.568 17.2907 124.568 15.648C124.568 13.984 124.909 12.5227 125.592 11.264C126.296 9.984 127.256 8.98133 128.472 8.256C129.688 7.53067 131.053 7.168 132.568 7.168C134.083 7.168 135.437 7.52 136.632 8.224C137.848 8.928 138.797 9.92 139.48 11.2C140.184 12.4587 140.536 13.92 140.536 15.584C140.536 15.648 140.525 15.7227 140.504 15.808C140.504 15.872 140.504 15.9467 140.504 16.032H125.752V14.784H139.64L139 15.392C139.021 14.0907 138.744 12.928 138.168 11.904C137.613 10.8587 136.856 10.048 135.896 9.472C134.936 8.87467 133.827 8.576 132.568 8.576C131.331 8.576 130.221 8.87467 129.24 9.472C128.28 10.048 127.523 10.8587 126.968 11.904C126.413 12.928 126.136 14.1013 126.136 15.424V15.712C126.136 17.0773 126.435 18.2933 127.032 19.36C127.651 20.4053 128.493 21.2267 129.56 21.824C130.627 22.4 131.843 22.688 133.208 22.688C134.275 22.688 135.267 22.496 136.184 22.112C137.123 21.728 137.912 21.1413 138.552 20.352L139.48 21.408C138.755 22.304 137.837 22.9867 136.728 23.456C135.64 23.904 134.456 24.128 133.176 24.128ZM151.918 24.128C150.36 24.128 148.952 23.776 147.694 23.072C146.456 22.3467 145.475 21.344 144.75 20.064C144.024 18.784 143.662 17.312 143.662 15.648C143.662 13.9627 144.024 12.4907 144.75 11.232C145.475 9.952 146.456 8.96 147.694 8.256C148.952 7.53067 150.36 7.168 151.918 7.168C153.39 7.168 154.712 7.50933 155.886 8.192C157.08 8.87467 158.019 9.84533 158.702 11.104C159.406 12.3627 159.758 13.8773 159.758 15.648C159.758 17.376 159.416 18.88 158.734 20.16C158.051 21.44 157.112 22.4213 155.918 23.104C154.744 23.7867 153.411 24.128 151.918 24.128ZM152.014 22.688C153.294 22.688 154.435 22.4 155.438 21.824C156.462 21.2267 157.262 20.3947 157.838 19.328C158.435 18.2613 158.734 17.0347 158.734 15.648C158.734 14.24 158.435 13.0133 157.838 11.968C157.262 10.9013 156.462 10.08 155.438 9.504C154.435 8.90667 153.294 8.608 152.014 8.608C150.734 8.608 149.582 8.90667 148.558 9.504C147.555 10.08 146.755 10.9013 146.158 11.968C145.582 13.0133 145.294 14.24 145.294 15.648C145.294 17.0347 145.582 18.2613 146.158 19.328C146.755 20.3947 147.555 21.2267 148.558 21.824C149.582 22.4 150.734 22.688 152.014 22.688ZM158.766 24V18.528L159.054 15.616L158.734 12.704V0.255999H160.334V24H158.766Z" fill="#FAFAFA"/>
</svg>
