<svg width="64" height="64" viewBox="0 0 64 64" fill="none" xmlns="http://www.w3.org/2000/svg">
<g clip-path="url(#clip0_8_175)">
<path d="M52 54H12C10.4087 54 8.88258 53.3679 7.75736 52.2426C6.63214 51.1174 6 49.5913 6 48V16C6 14.4087 6.63214 12.8826 7.75736 11.7574C8.88258 10.6321 10.4087 10 12 10H52C53.5913 10 55.1174 10.6321 56.2426 11.7574C57.3679 12.8826 58 14.4087 58 16V48C58 49.5913 57.3679 51.1174 56.2426 52.2426C55.1174 53.3679 53.5913 54 52 54ZM12 14C11.4696 14 10.9609 14.2107 10.5858 14.5858C10.2107 14.9609 10 15.4696 10 16V48C10 48.5304 10.2107 49.0391 10.5858 49.4142C10.9609 49.7893 11.4696 50 12 50H52C52.5304 50 53.0391 49.7893 53.4142 49.4142C53.7893 49.0391 54 48.5304 54 48V16C54 15.4696 53.7893 14.9609 53.4142 14.5858C53.0391 14.2107 52.5304 14 52 14H12Z" fill="#D8D8D8"/>
<path d="M42 30C40.8133 30 39.6533 29.6481 38.6666 28.9888C37.6799 28.3295 36.9109 27.3925 36.4567 26.2961C36.0026 25.1997 35.8838 23.9933 36.1153 22.8295C36.3468 21.6656 36.9182 20.5965 37.7574 19.7574C38.5965 18.9182 39.6656 18.3468 40.8295 18.1153C41.9933 17.8838 43.1997 18.0026 44.2961 18.4567C45.3925 18.9109 46.3295 19.6799 46.9888 20.6666C47.6481 21.6533 48 22.8133 48 24C48 25.5913 47.3679 27.1174 46.2426 28.2426C45.1174 29.3679 43.5913 30 42 30ZM42 22C41.6044 22 41.2178 22.1173 40.8889 22.3371C40.56 22.5568 40.3036 22.8692 40.1522 23.2346C40.0009 23.6001 39.9613 24.0022 40.0384 24.3902C40.1156 24.7781 40.3061 25.1345 40.5858 25.4142C40.8655 25.6939 41.2219 25.8844 41.6098 25.9616C41.9978 26.0387 42.3999 25.9991 42.7654 25.8478C43.1308 25.6964 43.4432 25.44 43.6629 25.1111C43.8827 24.7822 44 24.3956 44 24C44 23.4696 43.7893 22.9609 43.4142 22.5858C43.0391 22.2107 42.5304 22 42 22Z" fill="#D8D8D8"/>
<path d="M52.0001 54C51.6707 53.9983 51.3468 53.9153 51.0572 53.7583C50.7676 53.6013 50.5213 53.3752 50.3401 53.1L41.6601 40.1C41.4771 39.8278 41.23 39.6047 40.9406 39.4505C40.6511 39.2962 40.3281 39.2156 40.0001 39.2156C39.6721 39.2156 39.3491 39.2962 39.0596 39.4505C38.7701 39.6047 38.523 39.8278 38.3401 40.1L37.6601 41.1C37.3475 41.4881 36.9013 41.7455 36.4088 41.8218C35.9164 41.8981 35.4132 41.7879 34.9978 41.5126C34.5824 41.2373 34.2847 40.8169 34.1631 40.3337C34.0414 39.8504 34.1045 39.3392 34.3401 38.9L35.0001 37.88C35.5474 37.0549 36.2904 36.3781 37.1628 35.9099C38.0352 35.4417 39.01 35.1967 40.0001 35.1967C40.9902 35.1967 41.9649 35.4417 42.8374 35.9099C43.7098 36.3781 44.4528 37.0549 45.0001 37.88L53.6601 50.9C53.9496 51.341 54.0531 51.8784 53.9482 52.3953C53.8434 52.9122 53.5385 53.3668 53.1001 53.66C52.778 53.8856 52.3933 54.0045 52.0001 54Z" fill="#D8D8D8"/>
<path d="M12 53.9999C11.6168 53.9989 11.242 53.8879 10.92 53.6799C10.4751 53.393 10.162 52.9413 10.0496 52.424C9.93709 51.9066 10.0344 51.3657 10.32 50.9199L22.78 31.6799C23.3208 30.8444 24.0609 30.1564 24.9338 29.6781C25.8066 29.1998 26.7848 28.9461 27.78 28.9399C28.7699 28.9396 29.7444 29.1841 30.6168 29.6517C31.4892 30.1193 32.2323 30.7955 32.78 31.6199L45.62 50.8999C45.8556 51.3391 45.9187 51.8503 45.7971 52.3336C45.6754 52.8168 45.3778 53.2373 44.9624 53.5125C44.547 53.7878 44.0438 53.8981 43.5513 53.8217C43.0589 53.7454 42.6126 53.488 42.3 53.0999L29.44 33.8399C29.2589 33.5648 29.0125 33.3387 28.7229 33.1817C28.4334 33.0247 28.1095 32.9416 27.78 32.9399C27.4488 32.9438 27.1237 33.0299 26.834 33.1905C26.5442 33.3511 26.2989 33.5811 26.12 33.8599L13.68 53.0799C13.4993 53.3616 13.2509 53.5934 12.9573 53.7541C12.6638 53.9149 12.3347 53.9994 12 53.9999Z" fill="#D8D8D8"/>
</g>
<defs>
<clipPath id="clip0_8_175">
<rect width="64" height="64" fill="white"/>
</clipPath>
</defs>
</svg>
