<svg width="176" height="156" viewBox="0 0 176 156" fill="none" xmlns="http://www.w3.org/2000/svg">
<path opacity="0.3" d="M0 156H175.115V0H0V156ZM10.3009 147.086V119.357H164.814V147.086H10.3009ZM89.8799 110.312H28.5803L59.2301 76.3299L89.8799 110.312ZM88.3008 94.0729L105.649 79.6661L144.099 110.443H103.066L88.3008 94.0729ZM164.814 43.0444C161.526 44.0557 158.075 44.5714 154.513 44.5714C137.474 44.5714 123.611 32.5746 123.611 17.8286C123.611 14.7482 124.206 11.7615 125.373 8.91429H164.814V43.0444ZM10.3009 8.91429H114.606C113.745 11.8021 113.31 14.7826 113.31 17.8286C113.31 37.4899 131.794 53.4857 154.513 53.4857C158.035 53.4857 161.478 53.1086 164.814 52.3634V110.443H159.269L105.519 67.4196L81.9297 87.0092L59.2301 61.842L15.3952 110.443H10.3009V8.91429Z" fill="black"/>
</svg>
