<svg width="40" height="40" viewBox="0 0 40 40" fill="none" xmlns="http://www.w3.org/2000/svg">
<path fill-rule="evenodd" clip-rule="evenodd" d="M20 0C8.95433 0 0 8.95433 0 20C0 31.0457 8.95433 40 20 40C31.0457 40 40 31.0457 40 20C40 8.95433 31.0457 0 20 0ZM19.9699 21.6828L12.4989 16.2596V27.6917H11.2507C10.5553 27.6917 10.0026 27.1389 10.0026 26.4435V13.8017C10.0026 13.7487 10.0058 13.6991 10.012 13.6526C10.0347 13.4543 10.107 13.2602 10.2344 13.0884C10.6445 12.5357 11.4469 12.4108 12.0175 12.8209L19.9877 18.6159L28.0115 12.7497C28.5642 12.3395 29.3488 12.4643 29.7589 13.0349C29.9769 13.3287 30.0437 13.688 29.9728 14.0217V26.4613C29.9728 27.1389 29.4201 27.6917 28.7247 27.6917H27.4766V16.2323L19.9699 21.6828Z" fill="#FAFAFA"/>
</svg>
