<svg width="40" height="40" viewBox="0 0 40 40" fill="none" xmlns="http://www.w3.org/2000/svg">
<path fill-rule="evenodd" clip-rule="evenodd" d="M40 20C40 31.0457 31.0457 40 20 40C8.95431 40 0 31.0457 0 20C0 8.95431 8.95431 0 20 0C31.0457 0 40 8.95431 40 20ZM19.9999 9.07766C17.3412 9.08014 14.77 10.0284 12.7463 11.7527C10.7226 13.4771 9.37838 15.8651 8.95395 18.4898C8.52953 21.1144 9.05264 23.8044 10.4297 26.0787C11.8068 28.353 13.948 30.0632 16.4705 30.9035C17.0305 31.0071 17.2328 30.6588 17.2328 30.3671V28.2824C14.1175 28.9553 13.4681 26.96 13.4681 26.96C12.9599 25.6659 12.2258 25.3177 12.2258 25.3177C11.2093 24.6259 12.3011 24.64 12.3011 24.64C12.6563 24.6886 12.9957 24.8178 13.2934 25.0176C13.5911 25.2174 13.8392 25.4826 14.0187 25.793C15.0164 27.5059 16.6399 27.0118 17.2799 26.7341C17.3275 26.1657 17.58 25.6338 17.9905 25.2377C15.4681 24.9412 12.8517 24 12.8517 19.6894C12.836 18.5768 13.2508 17.5012 14.0093 16.6871C13.664 15.7215 13.7028 14.6602 14.1175 13.7224C14.1175 13.7224 15.0587 13.4212 17.1952 14.8706C19.0313 14.3686 20.9685 14.3686 22.8046 14.8706C24.9411 13.4212 25.8822 13.7224 25.8822 13.7224C26.297 14.6602 26.3358 15.7215 25.9905 16.6871C26.7477 17.5016 27.1608 18.5774 27.1434 19.6894C27.1434 24 24.527 24.9412 22.0328 25.2188C22.2992 25.4911 22.5046 25.817 22.6352 26.1749C22.7659 26.5327 22.8188 26.9142 22.7905 27.2941V30.3671C22.7905 30.6635 22.9928 31.0118 23.5622 30.9035C26.0874 30.0623 28.2304 28.3494 29.6073 26.0717C30.9842 23.7939 31.5049 21.1003 31.0762 18.4735C30.6474 15.8467 29.2973 13.4584 27.2676 11.7367C25.2379 10.0149 22.6614 9.0723 19.9999 9.07766ZM13.04 25.1577C13.0165 25.2142 12.9318 25.2283 12.8518 25.1907C12.7718 25.153 12.7247 25.0777 12.7483 25.0212C12.7718 24.9648 12.8612 24.9506 12.9412 24.9883C13.0212 25.0259 13.0683 25.1012 13.04 25.1577ZM13.2658 25.6094C13.3364 25.6894 13.4447 25.7129 13.4964 25.6612C13.5529 25.6141 13.5388 25.5106 13.4635 25.4306C13.3882 25.3506 13.2894 25.3271 13.2329 25.3788C13.2089 25.4145 13.199 25.4579 13.2051 25.5004C13.2112 25.543 13.2328 25.5818 13.2658 25.6094ZM13.9388 26.3106C13.8682 26.3576 13.7553 26.3106 13.6894 26.2117C13.6235 26.1129 13.6188 25.9906 13.6894 25.9435C13.76 25.8965 13.8682 25.9435 13.9388 26.0376C14.0094 26.1317 14.0094 26.2588 13.9388 26.3106ZM14.2541 26.8894C14.3482 26.9788 14.48 26.9976 14.5412 26.9317C14.6071 26.8658 14.5741 26.7341 14.48 26.6446C14.3859 26.5552 14.2588 26.5364 14.1929 26.6023C14.1271 26.6682 14.16 26.7999 14.2541 26.8894ZM15.3787 27.2942C15.3504 27.3789 15.2234 27.4212 15.0963 27.3836C14.9693 27.3459 14.8893 27.2424 14.9128 27.153C14.9363 27.0636 15.0681 27.0259 15.1951 27.0636C15.3222 27.1012 15.4022 27.2048 15.3787 27.2942ZM16.0565 27.5294C16.1882 27.5294 16.2918 27.4541 16.2918 27.36C16.2918 27.2706 16.1882 27.1906 16.0518 27.1953C15.9153 27.2 15.8118 27.28 15.8118 27.3694C15.8118 27.4588 15.9247 27.5294 16.0565 27.5294ZM17.1481 27.2141C17.1481 27.3035 17.0681 27.3977 16.9364 27.4212C16.8046 27.4447 16.687 27.393 16.6729 27.3035C16.6587 27.2141 16.7481 27.1153 16.8799 27.0918C17.0117 27.0682 17.1293 27.1247 17.1481 27.2141Z" fill="#FAFAFA"/>
</svg>
