<svg width="40" height="40" viewBox="0 0 40 40" fill="none" xmlns="http://www.w3.org/2000/svg">
<path fill-rule="evenodd" clip-rule="evenodd" d="M40 20C40 31.0457 31.0457 40 20 40C8.95431 40 0 31.0457 0 20C0 8.95431 8.95431 0 20 0C31.0457 0 40 8.95431 40 20ZM9.08703 16.1695H13.7317V31.1059H9.08703V16.1695ZM11.4117 8.74829C11.9441 8.74829 12.4645 8.90616 12.9072 9.20193C13.3499 9.49771 13.6949 9.91811 13.8986 10.41C14.1023 10.9018 14.1556 11.443 14.0518 11.9652C13.9479 12.4873 13.6916 12.967 13.3151 13.3434C12.9387 13.7199 12.459 13.9762 11.9369 14.0801C11.4147 14.184 10.8735 14.1307 10.3816 13.9269C9.88979 13.7232 9.46939 13.3782 9.17361 12.9355C8.87784 12.4929 8.71997 11.9724 8.71997 11.4401C8.71997 10.7262 9.00357 10.0415 9.50837 9.53669C10.0132 9.03189 10.6978 8.74829 11.4117 8.74829ZM16.6448 16.1693H21.0918V18.2117H21.1765C21.622 17.4505 22.2656 16.8244 23.0388 16.4001C23.812 15.9758 24.6858 15.7692 25.5671 15.8023C30.273 15.8023 31.1342 18.894 31.1342 22.9128V31.1058H26.4754V23.8446C26.4754 22.1128 26.4471 19.8823 24.066 19.8823C21.6848 19.8823 21.2801 21.7646 21.2801 23.7176V31.1058H16.6448V16.1693Z" fill="#FAFAFA"/>
</svg>
